# xmcd
#
# Track frame offsets:
#	150
#	10307
#	27460
#	36374
#	52042
#	72045
#	98573
#	114608
#	134468
#	143829
#	161971
#	181748
#	200638
#	216232
#	240352
#	250325
#
# Disc length: 3550 seconds
#
# Revision: 2
# Processed by: cddbd v1.5.1PL2 Copyright (c) Steve Scherf et al.
# Submitted via: EasyCDDAExtractor 9.1.3.1
#
DISCID=e90ddc10
DTITLE=Various Artist - Минаха години
DYEAR=2000
DGENRE=Oldies
TTITLE0=Костадин Гугов и Емилия Венева - Минаха години
TTITLE1=Костадин Гугов - Таз вечер празднувам разлъка
TTITLE2=Костадин Гугов и Емилия Венева - Майчино сърце
TTITLE3=Костадин Гугов и Емилия Венева - Гърди си с рози накичи
TTITLE4=Костадин Гугов и Емилия Венева - Белите манастири
TTITLE5=Костадин Гугов - На тежко вино
TTITLE6=Костадин Гугов и Емилия Венева - Аз искам да те забравя
TTITLE7=Костадин Гугов и Емилия Венева - Заспали чувства
TTITLE8=Емилия Венева - В градината на твоята душа
TTITLE9=Костадин Гугов и Емилия Венева - Два бука
TTITLE10=Костадин Гугов и Емилия Венева - Целувката на Ана
TTITLE11=Костадин Гугов и Емилия Венева - Кажи , кажи , бедни ми рибарю
TTITLE12=Емилия Венева - Ако е грях , че те обичам
TTITLE13=Костадин Гугов и Емилия Венева - Аз не искам големи богатства
TTITLE14=Емилия Венева - Недей тъгува
TTITLE15=Костадин Гугов и Емилия Венева - Драгиева чешма
EXTD=
EXTT0=
EXTT1=
EXTT2=
EXTT3=
EXTT4=
EXTT5=
EXTT6=
EXTT7=
EXTT8=
EXTT9=
EXTT10=
EXTT11=
EXTT12=
EXTT13=
EXTT14=
EXTT15=
PLAYORDER=
